<?xml version="1.0" standalone="no"?>
<!DOCTYPE svg PUBLIC "-//W3C//DTD SVG 20010904//EN"
 "http://www.w3.org/TR/2001/REC-SVG-20010904/DTD/svg10.dtd">
<svg version="1.0" xmlns="http://www.w3.org/2000/svg"
 width="16.000000pt" height="16.000000pt" viewBox="0 0 16.000000 16.000000"
 preserveAspectRatio="xMidYMid meet">
<metadata>
Created by potrace 1.11, written by Peter Selinger 2001-2013
</metadata>
<g transform="translate(0.000000,16.000000) scale(0.006250,-0.006250)"
fill="#000000" stroke="none">
<path d="M1123 2534 c-15 -14 -33 -22 -43 -19 -15 5 -60 -27 -60 -43 0 -8 -71
-32 -95 -32 -8 0 -36 -22 -62 -49 -134 -139 -140 -147 -147 -186 -4 -22 -18
-62 -31 -90 -42 -89 -77 -235 -79 -327 -1 -16 -5 -28 -10 -27 -5 0 -13 -5 -17
-13 -7 -10 -9 -10 -9 2 0 15 -65 54 -220 132 -47 24 -86 46 -88 51 -2 4 -12 7
-22 7 -10 0 -21 4 -24 9 -3 4 -26 14 -51 21 -36 10 -48 10 -60 0 -9 -7 -27
-10 -45 -6 l-30 6 0 -156 c0 -128 -3 -156 -15 -160 -13 -5 -15 -64 -15 -443 0
-240 4 -431 8 -425 4 7 34 13 67 15 l59 4 7 -38 c7 -46 9 -47 58 -54 22 -3 42
-12 45 -20 5 -13 -7 -14 -86 -9 -118 7 -128 9 -128 18 0 4 -7 8 -15 8 -12 0
-15 -17 -15 -91 l0 -91 73 4 c61 3 86 9 145 41 39 20 76 37 82 37 6 0 18 7 26
15 9 8 23 15 33 15 17 0 61 42 61 59 0 14 40 21 133 21 66 0 88 -3 85 -12 -5
-13 -27 -22 -133 -54 -33 -10 -69 -26 -80 -35 -13 -11 -32 -15 -53 -13 -36 4
-92 -21 -92 -41 0 -7 -6 -12 -12 -13 -37 -3 -83 -19 -80 -27 2 -5 -25 -18 -60
-30 -35 -11 -78 -28 -96 -38 l-32 -18 0 -219 0 -220 631 2 c728 3 692 -2 601
87 -55 54 -59 60 -40 79 9 9 16 8 29 -4 13 -12 19 -12 25 -3 4 7 0 17 -9 24
-14 10 -14 16 8 61 14 27 25 55 25 62 0 6 7 12 15 12 8 0 15 7 15 16 0 11 5
14 18 9 43 -18 47 -13 50 60 5 148 3 140 44 143 32 3 44 -2 75 -33 20 -19 41
-34 47 -32 6 2 12 20 14 40 2 20 8 37 13 37 6 0 10 12 9 28 -4 60 -1 70 31 81
39 14 80 -3 132 -53 40 -40 62 -41 47 -2 -5 13 -6 27 -3 30 3 3 1 11 -5 18 -5
7 -13 29 -17 49 -5 27 -2 40 11 54 17 17 18 16 29 -31 11 -46 66 -147 141
-256 17 -26 35 -64 38 -85 4 -21 13 -60 21 -88 32 -112 45 -184 45 -243 l0
-62 178 0 c160 0 179 2 193 18 14 16 14 20 2 28 -11 8 -11 14 2 39 13 23 14
35 5 54 -8 18 -8 26 1 31 8 6 8 9 -1 15 -8 5 -9 19 -4 44 4 20 8 47 9 61 1 14
7 38 14 53 6 16 11 32 11 37 0 5 5 10 12 12 6 2 12 13 13 25 0 11 9 33 19 47
29 45 16 61 -22 25 -19 -17 -39 -28 -47 -25 -9 3 -15 -1 -15 -11 0 -12 -6 -9
-26 11 -15 14 -33 26 -40 26 -8 0 -14 8 -14 18 0 14 -2 15 -10 2 -7 -12 -12
-12 -22 -2 -9 9 -9 12 0 12 7 0 12 7 12 15 0 8 -4 15 -9 15 -13 0 -23 45 -27
120 -7 145 -18 184 -63 234 -92 101 -129 136 -144 136 -10 0 -34 11 -55 24
-20 14 -49 28 -64 31 -16 4 -28 11 -28 16 0 13 27 11 35 -2 4 -6 22 -8 44 -4
54 9 158 -46 246 -132 80 -77 145 -152 145 -168 0 -13 48 -65 60 -65 5 0 10
10 12 23 2 15 11 23 28 24 28 3 73 -26 52 -34 -6 -3 -10 -9 -6 -14 11 -19 20
-8 22 30 l3 39 -61 4 c-39 3 -65 10 -71 19 -6 10 -2 15 16 17 14 2 25 10 25
18 0 16 36 19 45 4 10 -17 45 13 45 39 0 13 -3 21 -7 18 -3 -4 -17 0 -30 8
-21 14 -24 14 -35 -5 -7 -11 -19 -20 -26 -20 -7 0 -10 5 -7 10 9 14 -28 13
-60 -2 -32 -14 -47 2 -39 42 4 20 3 22 -5 10 -6 -9 -11 -10 -11 -3 0 6 7 18
15 27 9 8 18 34 21 58 7 48 25 88 48 107 25 21 19 41 -11 42 l-28 1 28 10 c18
6 26 15 23 24 -3 8 1 14 10 14 8 0 12 5 9 10 -12 20 34 10 61 -13 22 -19 27
-33 29 -75 1 -29 4 -55 8 -58 3 -4 6 160 7 365 0 368 0 371 -21 371 -12 0 -17
4 -14 11 4 6 13 8 21 5 11 -4 14 13 14 94 0 92 -2 100 -19 100 -36 0 -71 -19
-83 -45 -11 -25 -12 -25 -137 -25 l-126 0 -14 58 c-7 31 -19 71 -27 87 -22 47
-157 195 -179 195 -6 0 -25 12 -41 26 -66 59 -133 103 -183 120 -29 11 -69 34
-89 52 l-37 32 -238 -1 c-237 -1 -238 -1 -264 -25z m1329 -591 c1 -16 2 -37 3
-48 1 -11 7 -31 14 -44 11 -19 11 -25 0 -32 -20 -13 -29 -11 -29 6 0 18 -46
21 -52 4 -5 -15 -48 11 -48 28 0 27 -15 11 -17 -17 l-2 -30 57 0 c52 -1 55 -2
34 -13 -13 -7 -32 -28 -42 -45 -17 -28 -25 -32 -60 -32 -25 0 -39 -4 -35 -10
3 -5 -1 -10 -10 -10 -9 0 -14 4 -10 9 3 6 -17 7 -50 4 -64 -7 -64 -7 -36 88
11 35 19 73 18 84 -3 73 -2 74 71 78 194 10 192 10 194 -20z m-109 -240 c-7
-2 -21 -2 -30 0 -10 3 -4 5 12 5 17 0 24 -2 18 -5z m-3 -53 c0 -17 -5 -30 -12
-30 -9 0 -8 -4 2 -10 8 -5 11 -10 5 -10 -5 0 -4 -4 4 -9 8 -5 11 -16 6 -30 -6
-20 -13 -21 -116 -21 -100 0 -109 2 -109 19 0 23 34 31 134 32 49 0 65 3 51 9
-11 5 -14 9 -7 9 7 1 10 6 7 11 -3 6 -45 10 -92 10 -73 0 -84 2 -79 16 3 9 6
20 6 25 0 5 45 9 100 9 l100 0 0 -30z m-2230 -105 c0 -30 -15 -33 -30 -6 -14
27 -13 31 10 31 15 0 20 -7 20 -25z m2030 -59 c0 -5 -9 -1 -20 9 -11 10 -17
22 -14 27 6 9 33 -20 34 -36z m-209 -50 c5 3 9 -23 9 -60 0 -36 -5 -68 -11
-71 -6 -4 -8 -13 -5 -20 9 -23 -37 -55 -77 -53 -29 1 -37 5 -37 20 0 11 -4 17
-9 14 -5 -3 -16 5 -25 19 -9 13 -12 26 -7 30 5 3 12 19 16 35 5 24 14 32 46
41 28 9 39 18 39 32 0 13 5 17 15 13 8 -3 14 -2 14 2 -1 4 0 16 1 27 1 16 3
15 12 -8 5 -15 14 -25 19 -21z m569 8 c0 -10 6 -13 19 -9 16 5 18 0 17 -53
l-1 -59 -28 10 c-42 14 -43 2 -3 -23 20 -12 36 -28 36 -36 0 -17 -4 -17 -38 0
-15 8 -34 26 -42 41 -9 18 -20 25 -32 22 -23 -6 -23 13 -2 56 16 31 51 66 67
67 4 0 7 -7 7 -16z m-470 -213 c0 -10 7 -21 15 -25 15 -5 21 -37 9 -49 -4 -3
-19 0 -35 9 -16 8 -29 11 -29 8 0 -4 -3 -5 -6 -1 -4 3 1 13 10 22 9 9 16 25
16 36 0 10 5 19 10 19 6 0 10 -9 10 -19z m346 -29 c-4 -3 -11 -1 -18 6 -8 8
-8 15 3 28 13 16 14 16 17 -5 2 -13 1 -25 -2 -29z m-405 -9 c-12 -20 -14 -14
-5 12 4 9 9 14 11 11 3 -2 0 -13 -6 -23z m-574 11 c-3 -3 -12 -4 -19 -1 -8 3
-5 6 6 6 11 1 17 -2 13 -5z m183 -314 c0 -5 -5 -10 -11 -10 -5 0 -7 5 -4 10 3
6 8 10 11 10 2 0 4 -4 4 -10z m557 -63 c46 -95 34 -215 -21 -218 -17 -1 -17
-2 -3 -6 26 -7 21 -22 -10 -29 -42 -9 -50 -12 -30 -13 27 -1 10 -21 -19 -21
-16 0 -28 8 -33 23 -8 20 -10 21 -16 3 -5 -11 -3 -21 6 -27 23 -14 5 -10 -29
7 l-32 15 23 22 c12 12 34 30 48 39 23 14 30 40 19 68 -1 3 -3 11 -4 17 0 7
-4 13 -8 13 -5 0 -18 10 -30 22 -23 23 -25 57 -4 70 6 4 7 8 2 8 -16 0 19 33
49 46 49 22 67 14 92 -39z m-1537 16 c0 -10 -20 -40 -20 -31 0 3 -3 13 -6 22
-4 11 -1 16 10 16 9 0 16 -3 16 -7z m1350 -303 c0 -5 -4 -10 -10 -10 -5 0 -10
5 -10 10 0 6 5 10 10 10 6 0 10 -4 10 -10z m-700 -511 c0 -14 -13 -10 -40 11
l-25 20 33 -11 c17 -6 32 -15 32 -20z"/>
<path d="M2460 1402 c0 -5 11 -19 25 -32 15 -14 25 -18 25 -10 0 7 -10 21 -22
31 -24 21 -28 23 -28 11z"/>
<path d="M2408 1063 c-10 -2 -18 -9 -18 -14 0 -14 16 -11 30 6 7 8 11 14 9 14
-2 -1 -12 -3 -21 -6z"/>
<path d="M2386 1021 c-4 -5 -2 -12 3 -15 5 -4 12 -2 15 3 4 5 2 12 -3 15 -5 4
-12 2 -15 -3z"/>
<path d="M2535 1011 c-19 -8 -19 -8 3 -20 19 -10 22 -9 22 9 0 11 -1 20 -2 19
-2 0 -12 -4 -23 -8z"/>
<path d="M2540 960 c0 -5 5 -10 10 -10 6 0 10 5 10 10 0 6 -4 10 -10 10 -5 0
-10 -4 -10 -10z"/>
<path d="M2549 580 c-6 -45 -4 -58 7 -48 3 3 4 26 2 49 l-3 44 -6 -45z"/>
<path d="M1538 3 c7 -3 16 -2 19 1 4 3 -2 6 -13 5 -11 0 -14 -3 -6 -6z"/>
</g>
</svg>
